<svg viewBox="0 0 1024 1024" version="1.1" xmlns="http://www.w3.org/2000/svg" xmlns:xlink="http://www.w3.org/1999/xlink" style="background: none;">
    <g id="Page-1" stroke="none" stroke-width="1" fill="none" fill-rule="evenodd">
        <g id="sherpas-dark-1024">
            <g id="sherpa-logo" transform="translate(70.000000, 231.000000)">
                <g id="sherpa-title-stacked" transform="translate(24.000000, 439.000000)">
                    <path d="M0,8 L37.1368938,8 C39.5801227,8 42.2879941,8.28603938 45.2605893,8.85812672 C48.2331845,9.43021406 51.0021357,10.594803 53.5675261,12.3519284 C56.1329164,14.1090538 58.2707097,16.6016827 59.9809699,19.8298898 C61.6912302,23.0580969 62.5463475,27.2873935 62.5463475,32.5179063 C62.5463475,40.2002221 60.1845949,46.1253235 55.461019,50.2933884 C50.7374431,54.4614533 43.9779445,56.5454545 35.1823204,56.5454545 L5.37507673,56.5454545 L5.37507673,95.5289256 L0,95.5289256 L0,8 Z M5.37507673,51.8870523 L36.0374463,51.8870523 C39.9466125,51.8870523 43.265282,51.2945422 45.9935543,50.1095041 C48.7218266,48.9244661 50.9003397,47.3921122 52.529159,45.5123967 C54.1579783,43.6326811 55.3388545,41.5486799 56.0718232,39.2603306 C56.8047919,36.9719812 57.1712707,34.6836662 57.1712707,32.3953168 C57.1712707,30.7607815 56.9269515,28.8198 56.4383057,26.572314 C55.9496599,24.3248281 54.972383,22.1591013 53.5064457,20.0750689 C52.0405083,17.9910364 49.9841548,16.2339374 47.3373235,14.803719 C44.6904922,13.3735007 41.1682233,12.6584022 36.7704113,12.6584022 L5.37507673,12.6584022 L5.37507673,51.8870523 Z M75.9840393,46.4931129 L76.3505218,46.4931129 C76.9206085,44.4499439 77.9589653,42.5293937 79.4656231,40.731405 C80.9722809,38.9334162 82.8046751,37.380631 84.9628607,36.0730028 C87.1210462,34.7653745 89.5235186,33.7642367 92.1703499,33.0695592 C94.8171812,32.3748817 97.5657725,32.068411 100.416206,32.1501377 L100.416206,36.8085399 C97.9729773,36.4816329 95.1836662,36.7268095 92.0481891,37.5440771 C88.912712,38.3613448 85.9198014,40.1593066 83.0693677,42.9380165 C81.9291942,44.163918 80.9315574,45.3489383 80.0764273,46.4931129 C79.2212971,47.6372876 78.5086994,48.9040335 77.9386126,50.2933884 C77.3685259,51.6827434 76.9206073,53.2355286 76.5948435,54.9517906 C76.2690796,56.6680527 76.0654803,58.7111911 75.9840393,61.0812672 L75.9840393,95.5289256 L71.3419276,95.5289256 L71.3419276,32.5179063 L75.9840393,32.5179063 L75.9840393,46.4931129 Z M146.959484,83.0247934 L146.715163,83.0247934 C145.982194,84.9045089 144.923477,86.6820394 143.538981,88.357438 C142.154485,90.0328367 140.46461,91.5243277 138.469306,92.8319559 C136.474003,94.1395841 134.21405,95.1611533 131.68938,95.8966942 C129.16471,96.6322351 126.395759,97 123.382443,97 C116.704284,97 111.532861,95.5493717 107.868017,92.6480716 C104.203174,89.7467715 102.37078,85.2722984 102.37078,79.2245179 C102.37078,75.5468136 103.103737,72.5434001 104.569675,70.2141873 C106.035612,67.8849746 107.888366,66.04615 110.127993,64.6976584 C112.367619,63.3491668 114.851531,62.3888917 117.579804,61.8168044 C120.308076,61.2447171 122.934508,60.8360894 125.459177,60.5909091 L132.666667,59.9779614 C136.005746,59.7327811 138.632178,59.3445848 140.546041,58.8133609 C142.459903,58.2821369 143.905459,57.5466071 144.88275,56.6067493 C145.860042,55.6668915 146.47084,54.4614399 146.715163,52.9903581 C146.959486,51.5192764 147.081645,49.6804518 147.081645,47.4738292 C147.081645,45.7575672 146.755886,44.1639192 146.104359,42.6928375 C145.452831,41.2217557 144.434834,39.9141471 143.050338,38.7699725 C141.665841,37.6257978 139.874167,36.7268169 137.675261,36.0730028 C135.476355,35.4191887 132.788843,35.0922865 129.612646,35.0922865 C123.993219,35.0922865 119.452954,36.4816206 115.991713,39.2603306 C112.530472,42.0390405 110.636998,46.2479057 110.311234,51.8870523 L105.669122,51.8870523 C105.994886,44.9402775 108.214119,39.7302745 112.326888,36.2568871 C116.439656,32.7834996 122.282958,31.046832 129.856967,31.046832 C137.430977,31.046832 142.94852,32.538323 146.409761,35.5213499 C149.871002,38.5043767 151.601596,42.4067711 151.601596,47.2286501 L151.601596,83.8829201 C151.601596,84.7819145 151.621956,85.6808954 151.662676,86.5798898 C151.703397,87.4788842 151.845917,88.2961396 152.090239,89.0316804 C152.334562,89.7672213 152.741761,90.3597315 153.311848,90.8092287 C153.881935,91.2587258 154.696332,91.4834711 155.755064,91.4834711 C156.569474,91.4834711 157.70963,91.3608828 159.175568,91.1157025 L159.175568,95.0385675 C157.953953,95.3654745 156.691637,95.5289256 155.388582,95.5289256 C153.51544,95.5289256 152.029164,95.283749 150.929711,94.7933884 C149.830258,94.3030279 148.995501,93.6492236 148.425414,92.8319559 C147.855328,92.0146883 147.468489,91.0544132 147.264886,89.9511019 C147.061284,88.8477906 146.959484,87.642339 146.959484,86.3347107 L146.959484,83.0247934 Z M146.959484,59.7327824 C145.819311,61.1221373 144.088716,62.061981 141.767649,62.5523416 C139.446581,63.0427022 136.86087,63.4104671 134.010436,63.6556474 L126.192142,64.3911846 C123.911795,64.6363649 121.631483,64.9836984 119.351136,65.4331956 C117.070789,65.8826928 115.014435,66.638654 113.182014,67.7011019 C111.349592,68.7635498 109.863317,70.2141781 108.723143,72.0530303 C107.58297,73.8918825 107.012891,76.2823544 107.012891,79.2245179 C107.012891,83.8829434 108.478807,87.3358473 111.410681,89.5833333 C114.342556,91.8308193 118.373823,92.9545455 123.504604,92.9545455 C128.798267,92.9545455 132.992413,91.9942704 136.08717,90.0736915 C139.181927,88.1531125 141.543679,85.946523 143.172498,83.4538567 C144.801318,80.9611905 145.839674,78.5502871 146.2876,76.2210744 C146.735525,73.8918616 146.959484,72.318645 146.959484,71.5013774 L146.959484,59.7327824 Z M213.6593,52.0096419 C213.414977,49.2309319 212.70238,46.7791658 211.521486,44.65427 C210.340592,42.5293741 208.813596,40.7722751 206.940454,39.3829201 C205.067312,37.9935651 202.888799,36.9311332 200.40485,36.1955923 C197.9209,35.4600514 195.253749,35.0922865 192.403315,35.0922865 C188.494149,35.0922865 185.03296,35.8891105 182.019644,37.4827824 C179.006328,39.0764542 176.481696,41.2013182 174.445672,43.857438 C172.409648,46.5135578 170.862293,49.5374027 169.80356,52.9290634 C168.744828,56.320724 168.21547,59.8144907 168.21547,63.4104683 C168.21547,67.66026 168.704108,71.5830858 169.6814,75.1790634 C170.658691,78.7750409 172.165326,81.9010427 174.201351,84.5571625 C176.237375,87.2132823 178.762007,89.2768521 181.775322,90.7479339 C184.788638,92.2190156 188.331267,92.9545455 192.403315,92.9545455 C195.33519,92.9545455 198.043061,92.4641922 200.52701,91.4834711 C203.01096,90.5027499 205.209833,89.1542786 207.123696,87.4380165 C209.037558,85.7217545 210.605273,83.6581847 211.826888,81.2472452 C213.048502,78.8363057 213.8629,76.2006571 214.270104,73.3402204 L218.912216,73.3402204 C218.42357,77.0996515 217.405574,80.4503985 215.858195,83.392562 C214.310817,86.3347255 212.356263,88.806923 209.994475,90.8092287 C207.632687,92.8115343 204.945176,94.3438882 201.93186,95.4063361 C198.918544,96.468784 195.742394,97 192.403315,97 C187.272534,97 182.895148,96.0805877 179.271025,94.2417355 C175.646902,92.4028834 172.674352,89.9306859 170.353284,86.8250689 C168.032217,83.7194519 166.321982,80.1439596 165.222529,76.0984848 C164.123076,72.0530101 163.573358,67.8237135 163.573358,63.4104683 C163.573358,58.9972231 164.204516,54.8292207 165.466851,50.9063361 C166.729186,46.9834515 168.58194,43.5509789 171.025169,40.6088154 C173.468398,37.666652 176.481668,35.3374741 180.065071,33.6212121 C183.648473,31.9049501 187.76118,31.046832 192.403315,31.046832 C195.823835,31.046832 199.020345,31.475891 201.99294,32.334022 C204.965536,33.1921531 207.612327,34.4793303 209.933395,36.1955923 C212.254462,37.9118543 214.147936,40.0980124 215.613874,42.7541322 C217.079811,45.410252 217.975648,48.4953911 218.301412,52.0096419 L213.6593,52.0096419 Z M252.872928,36.5633609 L239.190915,36.5633609 L239.190915,80.5730028 C239.190915,83.1065324 239.190914,95.5289256 239.190914,95.5289256 L234.548803,95.5289256 C234.548803,95.5289256 234.385921,84.1689803 234.548803,80.5730028 L234.548803,36.5633609 L222.943524,36.5633609 L222.943524,32.5179063 L234.548803,32.5179063 L234.548803,12.9035813 L239.190915,12.9035813 L239.190915,32.5179063 L252.872928,32.5179063 L252.872928,36.5633609 Z M262.523634,20.6267218 L262.523634,8 L267.165746,8 L267.165746,20.6267218 L262.523634,20.6267218 Z M262.523634,95.5289256 L262.523634,32.5179063 L267.165746,32.5179063 L267.165746,95.5289256 L262.523634,95.5289256 Z M329.22345,52.0096419 C328.979127,49.2309319 328.266529,46.7791658 327.085635,44.65427 C325.904741,42.5293741 324.377746,40.7722751 322.504604,39.3829201 C320.631462,37.9935651 318.452949,36.9311332 315.968999,36.1955923 C313.48505,35.4600514 310.817898,35.0922865 307.967465,35.0922865 C304.058298,35.0922865 300.597109,35.8891105 297.583794,37.4827824 C294.570478,39.0764542 292.045846,41.2013182 290.009822,43.857438 C287.973798,46.5135578 286.426443,49.5374027 285.36771,52.9290634 C284.308978,56.320724 283.779619,59.8144907 283.779619,63.4104683 C283.779619,67.66026 284.268258,71.5830858 285.245549,75.1790634 C286.222841,78.7750409 287.729476,81.9010427 289.7655,84.5571625 C291.801524,87.2132823 294.326156,89.2768521 297.339472,90.7479339 C300.352788,92.2190156 303.895417,92.9545455 307.967465,92.9545455 C310.899339,92.9545455 313.607211,92.4641922 316.09116,91.4834711 C318.57511,90.5027499 320.773983,89.1542786 322.687845,87.4380165 C324.601708,85.7217545 326.169423,83.6581847 327.391037,81.2472452 C328.612652,78.8363057 329.427049,76.2006571 329.834254,73.3402204 L334.476366,73.3402204 C333.98772,77.0996515 332.969723,80.4503985 331.422345,83.392562 C329.874967,86.3347255 327.920413,88.806923 325.558625,90.8092287 C323.196837,92.8115343 320.509325,94.3438882 317.49601,95.4063361 C314.482694,96.468784 311.306544,97 307.967465,97 C302.836684,97 298.459298,96.0805877 294.835175,94.2417355 C291.211052,92.4028834 288.238501,89.9306859 285.917434,86.8250689 C283.596367,83.7194519 281.886132,80.1439596 280.786679,76.0984848 C279.687226,72.0530101 279.137508,67.8237135 279.137508,63.4104683 C279.137508,58.9972231 279.768666,54.8292207 281.031001,50.9063361 C282.293336,46.9834515 284.14609,43.5509789 286.589319,40.6088154 C289.032548,37.666652 292.045818,35.3374741 295.62922,33.6212121 C299.212623,31.9049501 303.32533,31.046832 307.967465,31.046832 C311.387985,31.046832 314.584495,31.475891 317.55709,32.334022 C320.529685,33.1921531 323.176477,34.4793303 325.497545,36.1955923 C327.818612,37.9118543 329.712086,40.0980124 331.178023,42.7541322 C332.643961,45.410252 333.539798,48.4953911 333.865562,52.0096419 L329.22345,52.0096419 Z M347.181093,64.6363636 L347.181093,65.3719008 C347.181093,69.0496052 347.669731,72.5638033 348.647023,75.9146006 C349.624314,79.2653978 351.06987,82.2075172 352.983732,84.7410468 C354.897595,87.2745765 357.300067,89.2768521 360.191222,90.7479339 C363.082376,92.2190156 366.441765,92.9545455 370.26949,92.9545455 C376.540445,92.9545455 381.508269,91.2996033 385.173112,87.9896694 C388.837956,84.6797355 391.362588,80.082674 392.747084,74.1983471 L397.389196,74.1983471 C396.004699,81.5537558 393.011789,87.1928179 388.410374,91.1157025 C383.80896,95.0385871 377.721339,97 370.14733,97 C365.505195,97 361.453568,96.1623132 357.992327,94.4869146 C354.531086,92.811516 351.639975,90.5232009 349.318907,87.6219008 C346.99784,84.7206007 345.267245,81.2881282 344.127072,77.3243802 C342.986898,73.3606322 342.41682,69.0904728 342.41682,64.5137741 C342.41682,60.1005289 343.007258,55.8712323 344.188152,51.8257576 C345.369046,47.7802828 347.140361,44.2252219 349.502149,41.1604683 C351.863937,38.0957147 354.816127,35.6439486 358.358809,33.8050964 C361.901491,31.9662442 366.075278,31.046832 370.880295,31.046832 C375.278107,31.046832 379.166854,31.8640873 382.546654,33.4986226 C385.926454,35.1331579 388.756485,37.3601787 391.036832,40.1797521 C393.317179,42.9993254 395.047774,46.2683469 396.228668,49.9869146 C397.409562,53.7054823 398,57.6896023 398,61.9393939 C398,62.3480278 397.97964,62.8179496 397.93892,63.3491736 C397.898199,63.8803975 397.877839,64.3094566 397.877839,64.6363636 L347.181093,64.6363636 Z M393.235727,60.5909091 C393.072846,57.158385 392.502767,53.9097949 391.525476,50.8450413 C390.548184,47.7802877 389.102629,45.083345 387.188766,42.7541322 C385.274903,40.4249195 382.953871,38.5656635 380.225599,37.1763085 C377.497326,35.7869536 374.382256,35.0922865 370.880295,35.0922865 C367.13401,35.0922865 363.835701,35.807385 360.985267,37.2376033 C358.134833,38.6678217 355.732361,40.547509 353.777778,42.8767218 C351.823195,45.2059345 350.316559,47.9233086 349.257827,51.0289256 C348.199094,54.1345426 347.547576,57.3218386 347.303254,60.5909091 L393.235727,60.5909091 Z" id="Practice" fill="#EF6841"></path>
                    <path d="M500.484541,29.9497268 C500.303645,25.7937861 499.421789,22.1799789 497.838948,19.1081967 C496.256107,16.0364145 494.107997,13.4615769 491.394555,11.3836066 C488.681113,9.30563624 485.447642,7.74718188 481.694047,6.70819672 C477.940452,5.66921156 473.847738,5.14972678 469.415782,5.14972678 C466.70234,5.14972678 463.785433,5.46593491 460.664975,6.09836066 C457.544516,6.7307864 454.650221,7.83751486 451.982003,9.41857923 C449.313785,10.9996436 447.120452,13.1227553 445.401938,15.7879781 C443.683425,18.4532009 442.824181,21.7733863 442.824181,25.7486339 C442.824181,29.6335349 443.773872,32.7956162 445.673281,35.2349727 C447.572691,37.6743291 450.059975,39.6393368 453.13521,41.1300546 C456.210445,42.6207725 459.737867,43.8178461 463.717582,44.7213115 C467.697297,45.6247768 471.722176,46.483056 475.79234,47.2961749 C479.952951,48.1092937 484.000442,49.0805044 487.934933,50.2098361 C491.869424,51.3391678 495.396847,52.8750358 498.517305,54.8174863 C501.637764,56.7599369 504.14766,59.2896019 506.04707,62.4065574 C507.946479,65.5235129 508.89617,69.4309419 508.89617,74.1289617 C508.89617,79.1883677 507.810809,83.4345912 505.640055,86.8677596 C503.469302,90.3009279 500.733288,93.1016285 497.431934,95.2699454 C494.130579,97.4382622 490.467487,98.9967166 486.442547,99.9453552 C482.417608,100.893994 478.551011,101.368306 474.84264,101.368306 C469.144411,101.368306 463.808055,100.758476 458.83341,99.5387978 C453.858766,98.3191196 449.517324,96.3315256 445.808953,93.5759563 C442.100581,90.820387 439.183675,87.2743386 437.058145,82.9377049 C434.932615,78.6010712 433.91509,73.3158782 434.005538,67.0819672 L439.975081,67.0819672 C439.703737,72.4124128 440.472534,76.9070855 442.281495,80.5661202 C444.090457,84.2251549 446.600353,87.2291322 449.81126,89.5781421 C453.022167,91.927152 456.798317,93.6211241 461.139825,94.6601093 C465.481332,95.6990944 470.048892,96.2185792 474.84264,96.2185792 C477.736978,96.2185792 480.834778,95.8571985 484.136133,95.1344262 C487.437488,94.4116539 490.467453,93.191994 493.226119,91.4754098 C495.984785,89.7588257 498.291177,87.5001962 500.145362,84.6994536 C501.999548,81.898711 502.926627,78.3752489 502.926627,74.1289617 C502.926627,70.0633677 501.976936,66.7431823 500.077527,64.168306 C498.178117,61.5934297 495.668221,59.5154906 492.547762,57.9344262 C489.427303,56.3533619 485.899881,55.0885293 481.96539,54.1398907 C478.030899,53.1912521 473.983408,52.3103866 469.822797,51.4972678 C465.752633,50.6841489 461.727754,49.7355245 457.748039,48.6513661 C453.768324,47.5672077 450.240901,46.0990985 447.165667,44.2469945 C444.090432,42.3948906 441.603148,40.0007433 439.703738,37.0644809 C437.804328,34.1282185 436.854638,30.3563072 436.854638,25.7486339 C436.854638,21.1409606 437.82694,17.1883589 439.771574,13.8907104 C441.716207,10.5930618 444.248715,7.92787902 447.369174,5.89508197 C450.489633,3.86228492 453.994443,2.37158944 457.88371,1.42295082 C461.772978,0.474312197 465.616963,0 469.415782,0 C474.480875,0 479.206716,0.564657377 483.593447,1.69398907 C487.980179,2.82332077 491.824164,4.58505178 495.125519,6.97923497 C498.426874,9.37341816 501.072441,12.4677406 503.062298,16.2622951 C505.052156,20.0568496 506.18274,24.6192812 506.454084,29.9497268 L500.484541,29.9497268 Z M526.940471,2.30382514 L526.940471,44.3147541 L527.211814,44.3147541 C528.116294,41.6947046 529.40516,39.3683162 531.07845,37.3355191 C532.751739,35.3027221 534.696343,33.5635774 536.912321,32.1180328 C539.128299,30.6724882 541.547749,29.5883461 544.170743,28.8655738 C546.793737,28.1428015 549.461915,27.7814208 552.175358,27.7814208 C556.245521,27.7814208 559.705108,28.2783193 562.554222,29.2721311 C565.403337,30.265943 567.73234,31.5759482 569.541301,33.2021858 C571.350263,34.8284234 572.774799,36.6579133 573.814952,38.6907104 C574.855104,40.7235074 575.60129,42.7788603 576.05353,44.8568306 C576.505771,46.9348009 576.777111,48.9449812 576.867559,50.8874317 C576.958007,52.8298822 577.00323,54.5238543 577.00323,55.9693989 L577.00323,99.0644809 L571.847716,99.0644809 L571.847716,55.020765 C571.847716,53.3041809 571.712046,51.1358965 571.440701,48.515847 C571.169357,45.8957975 570.377948,43.3887187 569.066451,40.9945355 C567.754954,38.6003523 565.765126,36.5449995 563.096908,34.8284153 C560.42869,33.1118311 556.742986,32.2535519 552.039686,32.2535519 C548.059971,32.2535519 544.532549,32.9763134 541.457314,34.4218579 C538.38208,35.8674025 535.759125,37.8775828 533.588371,40.452459 C531.417617,43.0273353 529.766965,46.0990714 528.636364,49.6677596 C527.505763,53.2364477 526.940471,57.1438768 526.940471,61.3901639 L526.940471,99.0644809 L521.784956,99.0644809 L521.784956,2.30382514 L526.940471,2.30382514 Z M594.233503,64.9136612 L594.233503,65.726776 C594.233503,69.7923701 594.776183,73.6772128 595.86156,77.3814208 C596.946937,81.0856287 598.552366,84.3380552 600.677896,87.1387978 C602.803426,89.9395404 605.471604,92.1529973 608.68251,93.779235 C611.893417,95.4054726 615.624344,96.2185792 619.875404,96.2185792 C626.839906,96.2185792 632.357156,94.3890893 636.427319,90.7300546 C640.497482,87.07102 643.301331,81.9891036 644.838948,75.484153 L649.994462,75.484153 C648.456845,83.6153412 645.132928,89.8491586 640.022612,94.1857923 C634.912296,98.5224261 628.151403,100.69071 619.739732,100.69071 C614.584192,100.69071 610.084468,99.7646723 606.240425,97.9125683 C602.396381,96.0604643 599.185523,93.5307993 596.607753,90.3234973 C594.029983,87.1161953 592.10799,83.3216977 590.841717,78.9398907 C589.575444,74.5580837 588.942317,69.8375481 588.942317,64.7781421 C588.942317,59.8994292 589.598055,55.2240661 590.909552,50.7519126 C592.22105,46.2797591 594.188266,42.3497437 596.81126,38.9617486 C599.434254,35.5737536 602.712948,32.8633981 606.647439,30.8306011 C610.58193,28.797804 615.217325,27.7814208 620.553761,27.7814208 C625.437957,27.7814208 629.756788,28.6848726 633.510383,30.4918033 C637.263978,32.298734 640.407002,34.7606402 642.939548,37.8775956 C645.472094,40.9945511 647.394087,44.6083583 648.705584,48.7191257 C650.017081,52.829893 650.67282,57.2342206 650.67282,61.9322404 C650.67282,62.3839731 650.650208,62.9034579 650.604984,63.4907104 C650.55976,64.0779629 650.537148,64.5522751 650.537148,64.9136612 L594.233503,64.9136612 Z M645.381634,60.4415301 C645.200737,56.6469756 644.56761,53.0557546 643.482234,49.6677596 C642.396857,46.2797645 640.791427,43.2983735 638.665898,40.7234973 C636.540368,38.148621 633.962636,36.0932682 630.932626,34.557377 C627.902615,33.0214859 624.443028,32.2535519 620.553761,32.2535519 C616.39315,32.2535519 612.730057,33.0440722 609.564375,34.6251366 C606.398692,36.206201 603.730514,38.2841401 601.55976,40.8590164 C599.389006,43.4338927 597.715742,46.4378699 596.539917,49.8710383 C595.364092,53.3042066 594.640518,56.8276686 594.369174,60.4415301 L645.381634,60.4415301 Z M667.76742,44.8568306 L668.174435,44.8568306 C668.807571,42.5981672 669.960767,40.4750555 671.634056,38.4874317 C673.307346,36.4998079 675.342397,34.7832495 677.739271,33.3377049 C680.136145,31.8921603 682.804323,30.7854319 685.743886,30.0174863 C688.683448,29.2495408 691.736025,28.9107464 694.901707,29.0010929 L694.901707,34.1508197 C692.188265,33.7894335 689.090465,34.0604691 685.608214,34.9639344 C682.125963,35.8673998 678.802046,37.8549937 675.636364,40.926776 C674.370091,42.281974 673.262118,43.5919791 672.312414,44.8568306 C671.362709,46.1216821 670.5713,47.5220324 669.938163,49.0579235 C669.305027,50.5938146 668.80757,52.310373 668.445778,54.2076503 C668.083985,56.1049275 667.857869,58.363557 667.76742,60.9836066 L667.76742,99.0644809 L662.611906,99.0644809 L662.611906,29.4076503 L667.76742,29.4076503 L667.76742,44.8568306 Z M706.705122,45.3989071 L706.976465,45.3989071 C707.519154,43.6823229 708.423621,41.7850741 709.689894,39.7071038 C710.956167,37.6291335 712.629431,35.7092984 714.709737,33.947541 C716.790043,32.1857835 719.299939,30.7176744 722.239502,29.5431694 C725.179064,28.3686644 728.548204,27.7814208 732.347024,27.7814208 C737.68346,27.7814208 742.318854,28.7752177 746.253346,30.7628415 C750.187837,32.7504653 753.443919,35.4156481 756.021689,38.7584699 C758.599459,42.1012918 760.521452,45.9861345 761.787725,50.4131148 C763.053998,54.840095 763.687125,59.4928718 763.687125,64.3715847 C763.687125,69.7020303 763.053998,74.58067 761.787725,79.0076503 C760.521452,83.4346305 758.599459,87.2517144 756.021689,90.4590164 C753.443919,93.6663184 750.187837,96.1733972 746.253346,97.9803279 C742.318854,99.7872586 737.68346,100.69071 732.347024,100.69071 C726.558347,100.69071 721.402884,99.4258779 716.88048,96.8961749 C712.358076,94.3664719 709.056771,90.2557662 706.976465,84.5639344 L706.705122,84.5639344 L706.705122,124 L701.549608,124 L701.549608,29.4076503 L706.705122,29.4076503 L706.705122,45.3989071 Z M732.347024,96.2185792 C736.869427,96.2185792 740.781248,95.3603 744.082603,93.6437158 C747.383957,91.9271317 750.097359,89.6233296 752.222889,86.7322404 C754.348419,83.8411513 755.931236,80.4757933 756.971389,76.6360656 C758.011542,72.7963378 758.531611,68.7082184 758.531611,64.3715847 C758.531611,60.3963371 758.034154,56.4889081 757.039225,52.6491803 C756.044296,48.8094526 754.506702,45.3763357 752.426396,42.3497268 C750.34609,39.3231178 747.6553,36.883798 744.353946,35.031694 C741.052591,33.17959 737.050323,32.2535519 732.347024,32.2535519 C727.734172,32.2535519 723.799739,33.1570037 720.543609,34.9639344 C717.287478,36.7708651 714.641911,39.1650124 712.60683,42.1464481 C710.571748,45.1278838 709.101989,48.5384143 708.197508,52.3781421 C707.293027,56.2178698 706.840794,60.2156441 706.840794,64.3715847 C706.840794,68.5275253 707.247804,72.5252996 708.061837,76.3650273 C708.875869,80.2047551 710.255182,83.5926993 712.199815,86.5289617 C714.144449,89.4652242 716.767404,91.8141988 720.068759,93.5759563 C723.370113,95.3377137 727.462827,96.2185792 732.347024,96.2185792 L732.347024,96.2185792 Z M822.025842,85.2415301 L821.754499,85.2415301 C820.940467,87.3195004 819.764659,89.284508 818.227042,91.136612 C816.689425,92.988716 814.812655,94.6375155 812.596677,96.0830601 C810.3807,97.5286047 807.870803,98.6579194 805.066913,99.4710383 C802.263022,100.284157 799.187834,100.69071 795.841255,100.69071 C788.424513,100.69071 782.681146,99.0870834 778.610983,95.8797814 C774.54082,92.6724794 772.505768,87.7260808 772.505768,81.0404372 C772.505768,76.9748431 773.319789,73.6546577 774.947854,71.0797814 C776.57592,68.5049052 778.633582,66.4721386 781.120904,64.9814208 C783.608227,63.4907029 786.366851,62.4291471 789.396862,61.7967213 C792.426873,61.1642956 795.343779,60.7125697 798.14767,60.4415301 L806.152284,59.7639344 C809.860655,59.4928948 812.777562,59.0637552 814.903092,58.4765027 C817.028622,57.8892503 818.634051,57.0761436 819.719428,56.0371585 C820.804805,54.9981733 821.483155,53.6655819 821.754499,52.0393443 C822.025844,50.4131066 822.161514,48.3803401 822.161514,45.9409836 C822.161514,44.0437064 821.799727,42.2819753 821.076142,40.6557377 C820.352558,39.0295001 819.221974,37.5839772 817.684356,36.3191257 C816.146739,35.0542742 814.156911,34.0604772 811.714813,33.3377049 C809.272715,32.6149326 806.287973,32.2535519 802.760498,32.2535519 C796.519581,32.2535519 791.477177,33.78942 787.633133,36.8612022 C783.78909,39.9329844 781.686204,44.5857612 781.324412,50.8196721 L776.168897,50.8196721 C776.530689,43.1402166 778.995363,37.3807114 783.56299,33.5409836 C788.130618,29.7012558 794.62017,27.7814208 803.031841,27.7814208 C811.443512,27.7814208 817.571278,29.4302203 821.415321,32.7278689 C825.259364,36.0255174 827.181357,40.3394998 827.181357,45.6699454 L827.181357,86.1901639 C827.181357,87.1839758 827.203968,88.1777728 827.249192,89.1715847 C827.294416,90.1653966 827.452698,91.0688484 827.724042,91.8819672 C827.995387,92.695086 828.44762,93.3500886 829.080757,93.8469945 C829.713893,94.3439005 830.618361,94.5923497 831.794186,94.5923497 C832.698666,94.5923497 833.96492,94.456832 835.592986,94.1857923 L835.592986,98.5224044 C834.236265,98.8837905 832.83434,99.0644809 831.387171,99.0644809 C829.306865,99.0644809 827.656213,98.7934453 826.435164,98.2513661 C825.214115,97.7092869 824.287036,96.9865255 823.653899,96.0830601 C823.020763,95.1795948 822.591141,94.1180389 822.365021,92.8983607 C822.138901,91.6786824 822.025842,90.346091 822.025842,88.9005464 L822.025842,85.2415301 Z M822.025842,59.4928962 C820.759569,61.0287873 818.837576,62.0677569 816.259806,62.6098361 C813.682036,63.1519153 810.810353,63.5584686 807.64467,63.8295082 L798.961698,64.642623 C796.429152,64.9136626 793.896644,65.2976296 791.364098,65.7945355 C788.831552,66.2914415 786.547772,67.1271344 784.51269,68.3016393 C782.477609,69.4761443 780.826956,71.0797713 779.560683,73.1125683 C778.29441,75.1453654 777.661283,77.7879619 777.661283,81.0404372 C777.661283,86.1901897 779.289324,90.0072736 782.545455,92.4918033 C785.801585,94.976333 790.278698,96.2185792 795.976927,96.2185792 C801.856052,96.2185792 806.514058,95.1570234 809.951084,93.0338798 C813.388111,90.9107362 816.011066,88.4714163 817.820028,85.715847 C819.628989,82.9602777 820.782185,80.2950948 821.279649,77.7202186 C821.777114,75.1453423 822.025842,73.4061976 822.025842,72.5027322 L822.025842,59.4928962 Z" id="Sherpa" fill="#B9BEA7"></path>
                </g>
                <g id="mtn" stroke="#FFFFFF" stroke-width="12" stroke-linecap="round" stroke-linejoin="round">
                    <path d="M0,381 C95.7057851,381 253.699037,117.22558 292.961983,117.225581 C332.22493,117.225581 417.586554,224.595294 460.995041,224.595296 C504.403528,224.595298 606.839116,-12.9661574 642.178512,0.556125755 C677.517909,14.0784089 764.915702,337.883028 884,381" id="Path-76"></path>
                </g>
            </g>
        </g>
    </g>
</svg>
