<svg viewBox="0 0 800 1200">
<g id="Sherpa" stroke="none" stroke-width="1" fill="none" fill-rule="evenodd">
        <g id="sherpas-grey">
            <g id="sherpa-mtn" transform="translate(100.000000, 400.000000)">
                <path d="M0,259 C64.9586777,259 179.133914,74.0639113 198.842975,79.6887805 C218.552036,85.3136496 283.429788,152.677641 312.892562,152.677642 C342.355336,152.677644 424.789836,-3.66253775 435.867769,0.378048742 C446.945701,4.41863523 519.173554,229.689512 600,259" stroke="#E1DFDC" stroke-width="8.14479638" stroke-linecap="round" stroke-linejoin="round"></path>
                <g id="right" transform="translate(359.049774, 47.585302)" fill="#E1DFDC">
                    <path d="M69.0386832,4.81711797 C70.8478381,-0.899818104 69.4624776,-1.60455615 65.9375728,3.25244036 L59.4678507,12.1671258 C56.8266922,15.8064007 52.1130597,21.3484374 48.9509458,24.5342388 L44.8413016,28.6746684 C41.6741339,31.8655614 38.6217273,38.0720912 38.0251549,42.5254385 L35.6968669,59.9058542 C35.0995807,64.3645302 32.2537349,70.7537125 29.3326403,74.1857175 L22.2510701,82.505881 C19.333491,85.9337557 15.1343492,91.8545477 12.8613882,95.748562 L8.17933575,103.769808 C5.91113676,107.655664 3.05745195,114.300084 1.80110847,118.62549 L0.913823702,121.680281 C-0.340574972,125.998992 1.88074993,127.808931 5.86172125,125.743381 C5.86172125,125.743381 22.6998024,116.873884 28.5067875,114.544618 C35.3248551,111.809793 35.6281148,104.729579 35.6281148,104.729579 C36.755642,100.388896 39.7346328,93.866314 42.2875075,90.1527935 L47.3052529,82.8537669 C49.8556067,79.1439134 51.9230769,72.4882443 51.9230769,67.9882487 L51.9230769,62.1915413 C51.9230769,57.6913958 53.2502748,50.6463121 54.890357,46.448482 L57.0479788,40.9259968 C58.6867623,36.7314907 61.1175538,29.8479157 62.4746231,25.5595716 L69.0386832,4.81711797 Z" id="Path-88"></path>
                    <path d="M80.7349263,18.650749 C80.3790182,14.1695085 81.8633634,13.7123853 84.0618392,17.6503978 L93.7662151,35.0333293 C95.9595264,38.962091 98.3126047,45.7542077 99.019176,50.186467 L102.903901,74.5550028 C103.61172,78.995088 104.990742,86.1524703 105.983262,90.5380532 L108.157009,100.143049 C109.149875,104.530159 111.53634,111.376569 113.483483,115.426933 L124.073078,137.454957 C126.021943,141.508903 126.528797,148.287999 125.208978,152.584092 L127.27971,145.84373 C125.958185,150.145374 121.28583,154.196086 116.837922,154.892154 L122.076105,154.072413 C117.630789,154.768075 111.393669,152.823102 108.126349,149.710324 L106.013922,147.697813 C102.755,144.593035 97.1887319,139.906527 93.5759445,137.226221 L97.487404,140.12811 C93.8770204,137.449587 90.4153738,131.674514 89.7536682,127.216107 L88.4137526,118.188092 C87.7529118,113.735513 87.8675119,106.543669 88.6711826,102.116597 L89.1568717,99.4411461 C89.9598871,95.0176835 89.4594817,87.9722452 88.040023,83.7072376 L86.3943662,78.7625787 C84.9745322,74.4964436 83.6618081,67.3936625 83.4624273,62.9006074 L82.8271655,48.5849569 C82.6277343,44.0907672 82.1771473,36.8097633 81.8216348,32.333503 L80.7349263,18.650749 Z" id="Path-89"></path>
                </g>
                <g id="left" transform="translate(119.457014, 108.766404)" fill="#E1DFDC">
                    <path d="M77.921854,3.74659672 C76.986668,-0.652490491 74.0766494,-1.28115241 71.4180047,2.34809358 L65.3259378,10.6642141 C62.669147,14.2909294 59.4357898,20.7088156 58.0989165,25.0154442 L55.8235356,32.3453987 C54.4889527,36.6446489 50.7805284,42.6631994 47.5436754,45.7851816 L40.9384267,52.1560202 C37.7001691,55.2793571 34.2101398,61.3532901 33.1433075,65.7222043 L31.7690585,71.3500579 C30.7021907,75.7191176 26.5606713,80.8557375 22.5112458,82.8266556 L7.98182321,89.8983505 C3.93574223,91.8676407 0.362166619,97.1033713 0.000752864486,101.583581 L0.562492602,94.6200613 C0.200750143,99.1043457 3.18195779,104.365831 7.20289442,106.362823 L7.20289442,106.362823 C11.2320295,108.363886 18.0971532,109.446399 22.545891,108.779285 L29.6463001,107.714537 C34.090868,107.048048 39.6977773,103.467351 42.1767993,99.7060276 L42.1899521,99.6860715 C44.6657878,95.9295825 49.2749073,90.3274675 52.4828145,87.1752589 L56.2019185,83.5207293 C59.4106737,80.3676873 61.3745875,74.2142542 60.5913226,69.7929085 L60.8135854,71.0475298 C60.0290311,66.6189058 61.4374693,60.0093387 63.9617946,56.2811417 L66.7961832,52.0950095 C69.3194454,48.3683826 71.4574334,41.6931672 71.5711662,37.1992031 L71.5328638,38.712661 C71.6467519,34.2125612 74.269389,27.9254903 77.3692559,24.6924477 L75.8360896,26.2914815 C78.9455518,23.0484314 80.7074586,16.8499977 79.772965,12.4541678 L77.921854,3.74659672 Z" id="Path-88"></path>
                    <path d="M159.552462,7.47315163 C158.799519,3.80242989 156.43414,3.30961132 154.274589,6.36484292 L149.288708,13.4186355 C147.126763,16.4772553 144.499976,21.8753573 143.427632,25.4555469 L141.523436,31.8130029 C140.448398,35.4021857 137.426866,40.4610041 134.774388,43.112457 L129.428621,48.4561581 C126.776262,51.1074914 123.930278,56.2100755 123.068826,59.8663006 L121.911716,64.7773775 C121.051657,68.4276918 117.647536,72.752297 114.287308,74.4472925 L102.62233,80.3314429 C99.2715449,82.0216752 96.3192634,86.4230336 96.0285313,90.1582122 L96.4716257,84.465561 C96.1807562,88.2025036 98.6451684,92.621754 101.981924,94.3392594 L101.807618,94.2495404 C105.141741,95.9656909 110.842092,96.8910531 114.554072,96.3141624 L120.05244,95.4596434 C123.757989,94.8837522 128.396205,91.8470368 130.401899,88.6931244 L130.444806,88.6256539 C132.455105,85.4644999 136.206902,80.7407067 138.840977,78.0581682 L141.838432,75.005564 C144.46521,72.3304568 146.08305,67.1689844 145.451686,63.4753856 L145.601752,64.3532985 C144.970519,60.660464 146.126166,55.1146693 148.170962,51.9847857 L150.510439,48.4038462 C152.560607,45.2657397 154.296847,39.6811528 154.388104,35.944063 L154.362209,37.0045167 C154.453616,33.2612749 156.59133,27.9961783 159.142422,25.2386554 L157.846091,26.6398841 C160.394723,23.8850201 161.848772,18.6680412 161.097473,15.005332 L159.552462,7.47315163 Z" id="Path-88-Copy" transform="translate(128.660469, 50.426158) scale(-1, 1) rotate(3.000000) translate(-128.660469, -50.426158) "></path>
                </g>
            </g>
        </g>
    </g>
</svg>