
<svg viewBox="63 722 687 333" version="1.1" xmlns="http://www.w3.org/2000/svg" xmlns:xlink="http://www.w3.org/1999/xlink">
    <g id="logo-mtn-title" stroke="none" stroke-width="1" fill="none" fill-rule="evenodd" transform="translate(63.000000, 894.000000)">
        <path d="M28.0172779,34.6153567 C28.0031083,35.1565377 28.892144,35.5718865 30.6632501,35.7217541 C30.6632501,35.7217541 35.5959402,36.1483652 44.3314296,36.87208 C49.7937127,36.5302694 56.6151038,35.432471 64.2881856,32.7485902 C84.6102107,25.6403781 110.310858,5.12065678 116.216644,5.12065678 C127.824177,5.12065678 101.561223,38.888131 109.496495,38.888131 C119.627128,38.888131 151.039265,-19.4375157 181.58542,-27.4189187 C202.250312,-32.818447 206.724283,-58.7305766 210.298797,-58.7305766 C217.836546,-58.7305766 209.954832,-40.5877991 226.182797,-17.5956534 C244.151392,7.86265436 286.270877,38.3386517 293.384347,36.4323147 C299.213449,34.8701751 280.370341,21.9972996 269.558337,-0.404929911 C264.155446,-11.5995987 262.024166,-37.0390246 263.449106,-40.9259083 C267.725568,-52.5910358 265.892803,-28.0328727 269.558339,-29.2607809 C273.223876,-30.488689 275.424395,-27.4842097 287.88603,-37.856138 C301.658237,-49.3188666 316.193009,-71.4619333 329.428801,-78.9910611 C361.807725,-97.4096834 307.43557,-37.856138 313.5448,-35.4003217 C322.848871,-31.6602293 344.307984,-51.1715471 361.807718,-67.2430157 C378.732277,-82.7862541 395.540523,-110.323675 406.405104,-109.688765 C416.445839,-109.101999 403.350488,-69.78175 398.463104,-58.7305766 C392.275879,-44.7402535 404.194174,-47.7903174 406.405104,-35.4003217 C408.8544,-21.674526 396.019419,6.34856493 400.906796,11.8741516 C412.514343,7.57647309 411.292489,10.0322988 418.012643,-6.54447068 C424.732797,-23.1212401 417.075011,-58.2023788 433.896643,-81.4468774 C438.784028,-88.2003723 438.173113,-125.037617 446.115105,-121.967846 C454.057098,-118.898076 475.439414,-50.7491736 482.770491,-29.2607809 C490.101568,-7.7723882 533.477116,10.0322894 537.75357,5.12065678 C538.975424,-1.63283806 499.265415,-29.2607809 504.763723,-61.1863929 C509.062213,-57.2121615 518.896053,-46.6207767 537.75357,-35.4003217 C555.102377,-25.077568 577.045161,-29.2943242 596.402188,29.0648658 C600.067726,40.1160392 665.445815,36.6817302 665.445815,36.6817302 C667.077553,36.6150091 667.924449,36.4739276 667.991249,36.257488 C667.910259,35.9939707 667.097592,35.6751284 665.557868,35.3087838 C665.557868,35.3087838 661.160073,36.4323027 639.777727,22.925313 C629.086554,16.1718182 621.050869,8.10223656 613.520223,1.687539e-14 C605.989578,-8.10223656 598.963971,-16.2371281 590.292956,-23.1212428 C567.61483,-41.1259192 554.523491,-56.3934809 548.750185,-61.1863955 C534.698954,-72.851523 523.414671,-78.3637991 510.26203,-88.2003696 C483.992337,-107.846895 437.626013,-168.71515 437.626013,-168.71515 C435.566348,-171.379834 431.387166,-172.476677 428.329053,-171.044051 C428.329053,-171.044051 408.237877,-163.716723 390.521107,-141.614375 C385.16861,-134.93693 368.338769,-127.966975 353.254798,-117.670168 C340.539587,-108.990353 319.043123,-93.7259589 306.824661,-90.6561886 C294.606199,-87.5864182 273.843118,-65.5381857 273.843118,-65.5381857 C271.476704,-63.1347562 266.986555,-62.1233354 263.832041,-63.3302576 C263.832041,-63.3302576 239.623116,-71.6236138 231.681115,-81.446879 C223.739115,-91.2701442 210.507901,-95.2457962 210.507901,-95.2457962 C207.355789,-96.4408774 202.467483,-95.9748749 199.609339,-94.1783577 C199.609339,-94.1783577 168.145112,-75.3073382 160.814036,-63.0282567 C158.277437,-58.7796153 145.854627,-44.0046915 125.380499,-29.2607825 C110.677602,-18.672875 102.776344,-21.2793701 97.2780341,-12.684013 C95.302679,-9.59599473 76.5066439,-7.77238041 71.6192606,-1.63283964 C69.8617083,0.575001234 60.1788058,14.4635641 53.2915683,19.855553 C41.026848,29.4575505 30.2508031,32.956107 30.2508031,32.956107 C28.8789761,33.4998182 28.1369861,34.0889478 28.0172779,34.6153567 Z" id="sherpa-caps" fill="#FFFFFF"></path>
        <g id="title" transform="translate(0.000000, 66.000000)">
            <path d="M0.3,73 L0.3,2 L29.5,2 C32.500015,2 35.266654,2.633327 37.8,3.9 C40.333346,5.166673 42.5166575,6.8499895 44.35,8.95 C46.1833425,11.0500105 47.6166615,13.4166535 48.65,16.05 C49.6833385,18.6833465 50.2,21.33332 50.2,24 C50.2,26.866681 49.7166715,29.63332 48.75,32.3 C47.7833285,34.96668 46.4166755,37.333323 44.65,39.4 C42.8833245,41.466677 40.766679,43.1166605 38.3,44.35 C35.833321,45.5833395 33.100015,46.2 30.1,46.2 L5.4,46.2 L5.4,73 L0.3,73 Z M5.4,41.5 L29.9,41.5 C32.233345,41.5 34.333324,41.0166715 36.2,40.05 C38.066676,39.0833285 39.6499935,37.7833415 40.95,36.15 C42.2500065,34.5166585 43.2499965,32.6500105 43.95,30.55 C44.6500035,28.4499895 45,26.266678 45,24 C45,21.666655 44.5833375,19.4500105 43.75,17.35 C42.9166625,15.2499895 41.7833405,13.400008 40.35,11.8 C38.9166595,10.199992 37.2500095,8.933338 35.35,8 C33.4499905,7.066662 31.433344,6.6 29.3,6.6 L5.4,6.6 L5.4,41.5 Z M82.5,25.5 C77.83331,25.633334 73.7500175,27.0166535 70.25,29.65 C66.7499825,32.2833465 64.300007,35.899977 62.9,40.5 L62.9,73 L57.9,73 L57.9,21 L62.7,21 L62.7,33.8 C64.500009,30.133315 66.8833185,27.1500115 69.85,24.85 C72.8166815,22.5499885 75.999983,21.233335 79.4,20.9 C80.06667,20.833333 80.666664,20.8 81.2,20.8 L82.5,20.8 L82.5,25.5 Z M101.1,74 C98.699988,74 96.466677,73.5833375 94.4,72.75 C92.333323,71.9166625 90.5166745,70.7833405 88.95,69.35 C87.3833255,67.9166595 86.166671,66.2166765 85.3,64.25 C84.433329,62.2833235 84,60.166678 84,57.9 C84,55.633322 84.533328,53.566676 85.6,51.7 C86.666672,49.833324 88.1499905,48.2166735 90.05,46.85 C91.9500095,45.4833265 94.23332,44.4166705 96.9,43.65 C99.56668,42.8833295 102.499984,42.5 105.7,42.5 C108.500014,42.5 111.316652,42.7499975 114.15,43.25 C116.983347,43.7500025 119.533322,44.433329 121.8,45.3 L121.8,40.2 C121.8,35.266642 120.400014,31.3500145 117.6,28.45 C114.799986,25.5499855 111.000024,24.1 106.2,24.1 C103.666654,24.1 100.983347,24.633328 98.15,25.7 C95.3166525,26.766672 92.433348,28.29999 89.5,30.3 L87.6,26.9 C94.2667,22.366644 100.59997,20.1 106.6,20.1 C112.866698,20.1 117.799982,21.9166485 121.4,25.55 C125.000018,29.1833515 126.8,34.199968 126.8,40.6 L126.8,66 C126.8,67.666675 127.533326,68.5 129,68.5 L129,73 C128.666665,73.066667 128.316668,73.1166665 127.95,73.15 C127.583331,73.1833335 127.266668,73.2 127,73.2 C125.66666,73.2 124.600004,72.7500045 123.8,71.85 C122.999996,70.9499955 122.533334,69.866673 122.4,68.6 L122.4,64.3 C119.999988,67.433349 116.933352,69.833325 113.2,71.5 C109.466648,73.166675 105.433355,74 101.1,74 L101.1,74 Z M102.1,70 C105.966686,70 109.51665,69.266674 112.75,67.8 C115.983349,66.333326 118.466658,64.400012 120.2,62 C121.266672,60.599993 121.8,59.266673 121.8,58 L121.8,48.8 C119.399988,47.866662 116.900013,47.166669 114.3,46.7 C111.699987,46.233331 109.000014,46 106.2,46 C103.599987,46 101.233344,46.2833305 99.1,46.85 C96.966656,47.4166695 95.133341,48.199995 93.6,49.2 C92.066659,50.200005 90.8833375,51.4166595 90.05,52.85 C89.2166625,54.2833405 88.8,55.866658 88.8,57.6 C88.8,59.333342 89.13333,60.966659 89.8,62.5 C90.46667,64.033341 91.399994,65.3499945 92.6,66.45 C93.800006,67.5500055 95.2166585,68.4166635 96.85,69.05 C98.4833415,69.6833365 100.233324,70 102.1,70 L102.1,70 Z M135.4,46.8 C135.4,43.133315 136.033327,39.666683 137.3,36.4 C138.566673,33.133317 140.333322,30.300012 142.6,27.9 C144.866678,25.499988 147.566651,23.600007 150.7,22.2 C153.833349,20.799993 157.266648,20.1 161,20.1 C165.733357,20.1 169.899982,21.166656 173.5,23.3 C177.100018,25.433344 179.799991,28.399981 181.6,32.2 L176.7,33.8 C175.166659,30.933319 172.983347,28.6833415 170.15,27.05 C167.316652,25.4166585 164.200017,24.6 160.8,24.6 C157.933319,24.6 155.266679,25.166661 152.8,26.3 C150.333321,27.433339 148.183342,28.99999 146.35,31 C144.516657,33.00001 143.066672,35.3499865 142,38.05 C140.933328,40.7500135 140.4,43.666651 140.4,46.8 C140.4,49.933349 140.949994,52.8833195 142.05,55.65 C143.150005,58.4166805 144.616657,60.8166565 146.45,62.85 C148.283342,64.8833435 150.449987,66.499994 152.95,67.7 C155.450012,68.900006 158.099986,69.5 160.9,69.5 C162.700009,69.5 164.483324,69.233336 166.25,68.7 C168.016675,68.166664 169.649992,67.466671 171.15,66.6 C172.650007,65.733329 173.949994,64.7166725 175.05,63.55 C176.150005,62.3833275 176.899998,61.166673 177.3,59.9 L182.2,61.3 C181.53333,63.100009 180.516673,64.7833255 179.15,66.35 C177.783326,67.9166745 176.166676,69.266661 174.3,70.4 C172.433324,71.533339 170.366678,72.4166635 168.1,73.05 C165.833322,73.6833365 163.500012,74 161.1,74 C157.433315,74 154.033349,73.2833405 150.9,71.85 C147.766651,70.4166595 145.050011,68.4500125 142.75,65.95 C140.449988,63.4499875 138.650006,60.566683 137.35,57.3 C136.049993,54.033317 135.4,50.533352 135.4,46.8 L135.4,46.8 Z M213.7,70.5 C213.433332,70.633334 212.983336,70.8833315 212.35,71.25 C211.716663,71.6166685 210.916671,71.966665 209.95,72.3 C208.983328,72.633335 207.900006,72.933332 206.7,73.2 C205.499994,73.466668 204.200007,73.6 202.8,73.6 C201.399993,73.6 200.083339,73.400002 198.85,73 C197.61666,72.599998 196.533338,72.000004 195.6,71.2 C194.666662,70.399996 193.933336,69.433339 193.4,68.3 C192.866664,67.166661 192.6,65.833341 192.6,64.3 L192.6,25.1 L185.3,25.1 L185.3,21 L192.6,21 L192.6,3.2 L197.6,3.2 L197.6,21 L209.7,21 L209.7,25.1 L197.6,25.1 L197.6,63.1 C197.6,65.033343 198.26666,66.4833285 199.6,67.45 C200.93334,68.4166715 202.433325,68.9 204.1,68.9 C206.166677,68.9 207.949992,68.5500035 209.45,67.85 C210.950007,67.1499965 211.866665,66.700001 212.2,66.5 L213.7,70.5 Z M219.5,73 L219.5,21 L224.5,21 L224.5,73 L219.5,73 Z M219.5,9.2 L219.5,0 L224.5,0 L224.5,9.2 L219.5,9.2 Z M233.6,46.8 C233.6,43.133315 234.233327,39.666683 235.5,36.4 C236.766673,33.133317 238.533322,30.300012 240.8,27.9 C243.066678,25.499988 245.766651,23.600007 248.9,22.2 C252.033349,20.799993 255.466648,20.1 259.2,20.1 C263.933357,20.1 268.099982,21.166656 271.7,23.3 C275.300018,25.433344 277.999991,28.399981 279.8,32.2 L274.9,33.8 C273.366659,30.933319 271.183347,28.6833415 268.35,27.05 C265.516652,25.4166585 262.400017,24.6 259,24.6 C256.133319,24.6 253.466679,25.166661 251,26.3 C248.533321,27.433339 246.383342,28.99999 244.55,31 C242.716657,33.00001 241.266672,35.3499865 240.2,38.05 C239.133328,40.7500135 238.6,43.666651 238.6,46.8 C238.6,49.933349 239.149994,52.8833195 240.25,55.65 C241.350005,58.4166805 242.816657,60.8166565 244.65,62.85 C246.483342,64.8833435 248.649987,66.499994 251.15,67.7 C253.650012,68.900006 256.299986,69.5 259.1,69.5 C260.900009,69.5 262.683324,69.233336 264.45,68.7 C266.216675,68.166664 267.849992,67.466671 269.35,66.6 C270.850007,65.733329 272.149994,64.7166725 273.25,63.55 C274.350005,62.3833275 275.099998,61.166673 275.5,59.9 L280.4,61.3 C279.73333,63.100009 278.716673,64.7833255 277.35,66.35 C275.983326,67.9166745 274.366676,69.266661 272.5,70.4 C270.633324,71.533339 268.566678,72.4166635 266.3,73.05 C264.033322,73.6833365 261.700012,74 259.3,74 C255.633315,74 252.233349,73.2833405 249.1,71.85 C245.966651,70.4166595 243.250011,68.4500125 240.95,65.95 C238.649988,63.4499875 236.850006,60.566683 235.55,57.3 C234.249993,54.033317 233.6,50.533352 233.6,46.8 L233.6,46.8 Z M310.3,74 C306.633315,74 303.233349,73.2833405 300.1,71.85 C296.966651,70.4166595 294.250011,68.4500125 291.95,65.95 C289.649988,63.4499875 287.850006,60.566683 286.55,57.3 C285.249993,54.033317 284.6,50.533352 284.6,46.8 C284.6,43.133315 285.249993,39.6833495 286.55,36.45 C287.850006,33.2166505 289.633322,30.3833455 291.9,27.95 C294.166678,25.5166545 296.849984,23.600007 299.95,22.2 C303.050015,20.799993 306.399982,20.1 310,20.1 C313.666685,20.1 317.066651,20.8166595 320.2,22.25 C323.333349,23.6833405 326.033322,25.6166545 328.3,28.05 C330.566678,30.4833455 332.333327,33.3166505 333.6,36.55 C334.866673,39.7833495 335.5,43.199982 335.5,46.8 L335.5,48.05 C335.5,48.5500025 335.466667,48.866666 335.4,49 L289.8,49 C290.000001,52.000015 290.699994,54.7833205 291.9,57.35 C293.100006,59.9166795 294.616657,62.133324 296.45,64 C298.283342,65.866676 300.399988,67.333328 302.8,68.4 C305.200012,69.466672 307.766653,70 310.5,70 C312.300009,70 314.066658,69.7500025 315.8,69.25 C317.533342,68.7499975 319.149992,68.066671 320.65,67.2 C322.150007,66.333329 323.483327,65.2833395 324.65,64.05 C325.816672,62.8166605 326.73333,61.466674 327.4,60 L331.8,61.2 C331.066663,63.066676 329.98334,64.7833255 328.55,66.35 C327.116659,67.9166745 325.450009,69.266661 323.55,70.4 C321.64999,71.533339 319.566678,72.4166635 317.3,73.05 C315.033322,73.6833365 312.700012,74 310.3,74 L310.3,74 Z M330.7,45 C330.499999,41.933318 329.816672,39.133346 328.65,36.6 C327.483327,34.066654 325.983342,31.8833425 324.15,30.05 C322.316657,28.2166575 320.200012,26.7833385 317.8,25.75 C315.399988,24.7166615 312.833347,24.2 310.1,24.2 C307.366653,24.2 304.800012,24.7166615 302.4,25.75 C299.999988,26.7833385 297.883342,28.2166575 296.05,30.05 C294.216657,31.8833425 292.750005,34.0833205 291.65,36.65 C290.549994,39.2166795 289.900001,41.999985 289.7,45 L330.7,45 Z" id="Practice" fill="#EF3A25"></path>
            <path d="M426.6,13.8 C421.999977,8.666641 415.500042,6.1 407.1,6.1 C400.166632,6.1 395.116683,7.4166535 391.95,10.05 C388.783318,12.6833465 387.2,16.233311 387.2,20.7 C387.2,22.966678 387.599996,24.8499925 388.4,26.35 C389.200004,27.8500075 390.449992,29.133328 392.15,30.2 C393.850009,31.266672 395.999987,32.166663 398.6,32.9 C401.200013,33.633337 404.333315,34.399996 408,35.2 C411.800019,36.000004 415.249984,36.8833285 418.35,37.85 C421.450016,38.8166715 424.083323,40.033326 426.25,41.5 C428.416677,42.966674 430.083327,44.766656 431.25,46.9 C432.416673,49.033344 433,51.666651 433,54.8 C433,57.933349 432.383339,60.666655 431.15,63 C429.916661,65.333345 428.183344,67.2833255 425.95,68.85 C423.716656,70.4166745 421.050015,71.599996 417.95,72.4 C414.849985,73.200004 411.400019,73.6 407.6,73.6 C396.533278,73.6 387.166705,70.066702 379.5,63 L382.2,58.9 C385.200015,62.033349 388.866645,64.5166575 393.2,66.35 C397.533355,68.1833425 402.399973,69.1 407.8,69.1 C414.000031,69.1 418.849983,67.966678 422.35,65.7 C425.850017,63.433322 427.6,60.000023 427.6,55.4 C427.6,53.066655 427.133338,51.0833415 426.2,49.45 C425.266662,47.8166585 423.883343,46.400006 422.05,45.2 C420.216657,43.999994 417.900014,42.966671 415.1,42.1 C412.299986,41.233329 409.033352,40.400004 405.3,39.6 C401.499981,38.799996 398.150014,37.9500045 395.25,37.05 C392.349986,36.1499955 389.916676,35.0166735 387.95,33.65 C385.983323,32.2833265 384.500005,30.633343 383.5,28.7 C382.499995,26.766657 382,24.333348 382,21.4 C382,18.199984 382.616661,15.366679 383.85,12.9 C385.08334,10.433321 386.799989,8.3500085 389,6.65 C391.200011,4.9499915 393.833318,3.666671 396.9,2.8 C399.966682,1.933329 403.366648,1.5 407.1,1.5 C411.700023,1.5 415.799982,2.1833265 419.4,3.55 C423.000018,4.9166735 426.266652,6.999986 429.2,9.8 L426.6,13.8 Z M483.8,73 L478.8,73 L478.8,44 C478.8,31.133269 474.500043,24.7 465.9,24.7 C463.766656,24.7 461.683343,25.099996 459.65,25.9 C457.616656,26.700004 455.716676,27.833326 453.95,29.3 C452.183325,30.766674 450.63334,32.4833235 449.3,34.45 C447.96666,36.4166765 446.96667,38.533322 446.3,40.8 L446.3,73 L441.3,73 L441.3,0 L446.3,0 L446.3,33.4 C448.433344,29.333313 451.383314,26.100012 455.15,23.7 C458.916685,21.299988 462.966645,20.1 467.3,20.1 C470.166681,20.1 472.633323,20.633328 474.7,21.7 C476.766677,22.766672 478.483326,24.29999 479.85,26.3 C481.216674,28.30001 482.216663,30.7166525 482.85,33.55 C483.483337,36.3833475 483.8,39.566649 483.8,43.1 L483.8,73 Z M518,74 C514.333315,74 510.933349,73.2833405 507.8,71.85 C504.666651,70.4166595 501.950011,68.4500125 499.65,65.95 C497.349988,63.4499875 495.550006,60.566683 494.25,57.3 C492.949994,54.033317 492.3,50.533352 492.3,46.8 C492.3,43.133315 492.949994,39.6833495 494.25,36.45 C495.550006,33.2166505 497.333322,30.3833455 499.6,27.95 C501.866678,25.5166545 504.549984,23.600007 507.65,22.2 C510.750016,20.799993 514.099982,20.1 517.7,20.1 C521.366685,20.1 524.766651,20.8166595 527.9,22.25 C531.033349,23.6833405 533.733322,25.6166545 536,28.05 C538.266678,30.4833455 540.033327,33.3166505 541.3,36.55 C542.566673,39.7833495 543.2,43.199982 543.2,46.8 L543.2,48.05 C543.2,48.5500025 543.166667,48.866666 543.1,49 L497.5,49 C497.700001,52.000015 498.399994,54.7833205 499.6,57.35 C500.800006,59.9166795 502.316658,62.133324 504.15,64 C505.983342,65.866676 508.099988,67.333328 510.5,68.4 C512.900012,69.466672 515.466653,70 518.2,70 C520.000009,70 521.766658,69.7500025 523.5,69.25 C525.233342,68.7499975 526.849992,68.066671 528.35,67.2 C529.850007,66.333329 531.183328,65.2833395 532.35,64.05 C533.516673,62.8166605 534.43333,61.466674 535.1,60 L539.5,61.2 C538.766663,63.066676 537.68334,64.7833255 536.25,66.35 C534.81666,67.9166745 533.15001,69.266661 531.25,70.4 C529.34999,71.533339 527.266678,72.4166635 525,73.05 C522.733322,73.6833365 520.400012,74 518,74 L518,74 Z M538.4,45 C538.199999,41.933318 537.516673,39.133346 536.35,36.6 C535.183328,34.066654 533.683342,31.8833425 531.85,30.05 C530.016658,28.2166575 527.900012,26.7833385 525.5,25.75 C523.099988,24.7166615 520.533347,24.2 517.8,24.2 C515.066653,24.2 512.500012,24.7166615 510.1,25.75 C507.699988,26.7833385 505.583343,28.2166575 503.75,30.05 C501.916657,31.8833425 500.450005,34.0833205 499.35,36.65 C498.249994,39.2166795 497.600001,41.999985 497.4,45 L538.4,45 Z M575.8,25.5 C571.13331,25.633334 567.050017,27.0166535 563.55,29.65 C560.049982,32.2833465 557.600007,35.899977 556.2,40.5 L556.2,73 L551.2,73 L551.2,21 L556,21 L556,33.8 C557.800009,30.133315 560.183319,27.1500115 563.15,24.85 C566.116682,22.5499885 569.299983,21.233335 572.7,20.9 C573.36667,20.833333 573.966664,20.8 574.5,20.8 L575.8,20.8 L575.8,25.5 Z M607.7,74 C603.233311,74 599.250018,72.8166785 595.75,70.45 C592.249982,68.0833215 589.433344,65.200017 587.3,61.8 L587.3,94.3 L582.3,94.3 L582.3,21 L586.9,21 L586.9,31.4 C589.033344,28.06665 591.849983,25.3500105 595.35,23.25 C598.850018,21.1499895 602.59998,20.1 606.6,20.1 C610.200018,20.1 613.533318,20.866659 616.6,22.4 C619.666682,23.933341 622.299989,25.9499875 624.5,28.45 C626.700011,30.9500125 628.416661,33.833317 629.65,37.1 C630.883339,40.366683 631.5,43.699983 631.5,47.1 C631.5,50.700018 630.933339,54.133317 629.8,57.4 C628.666661,60.666683 627.05001,63.533321 624.95,66 C622.849989,68.466679 620.333348,70.4166595 617.4,71.85 C614.466652,73.2833405 611.233351,74 607.7,74 L607.7,74 Z M606.5,69.5 C609.500015,69.5 612.233321,68.866673 614.7,67.6 C617.166679,66.333327 619.266658,64.6500105 621,62.55 C622.733342,60.4499895 624.066662,58.0500135 625,55.35 C625.933338,52.6499865 626.4,49.900014 626.4,47.1 C626.4,44.099985 625.866672,41.2500135 624.8,38.55 C623.733328,35.8499865 622.25001,33.466677 620.35,31.4 C618.449991,29.333323 616.233346,27.6833395 613.7,26.45 C611.166654,25.2166605 608.466681,24.6 605.6,24.6 C603.799991,24.6 601.883344,24.9833295 599.85,25.75 C597.816657,26.5166705 595.900009,27.5499935 594.1,28.85 C592.299991,30.1500065 590.766673,31.633325 589.5,33.3 C588.233327,34.966675 587.500001,36.733324 587.3,38.6 L587.3,55.7 C588.166671,57.633343 589.26666,59.433325 590.6,61.1 C591.93334,62.766675 593.433325,64.233327 595.1,65.5 C596.766675,66.766673 598.566657,67.7499965 600.5,68.45 C602.433343,69.1500035 604.433323,69.5 606.5,69.5 L606.5,69.5 Z M653.3,74 C650.899988,74 648.666677,73.5833375 646.6,72.75 C644.533323,71.9166625 642.716674,70.7833405 641.15,69.35 C639.583326,67.9166595 638.366671,66.2166765 637.5,64.25 C636.633329,62.2833235 636.2,60.166678 636.2,57.9 C636.2,55.633322 636.733328,53.566676 637.8,51.7 C638.866672,49.833324 640.34999,48.2166735 642.25,46.85 C644.15001,45.4833265 646.43332,44.4166705 649.1,43.65 C651.76668,42.8833295 654.699984,42.5 657.9,42.5 C660.700014,42.5 663.516652,42.7499975 666.35,43.25 C669.183347,43.7500025 671.733322,44.433329 674,45.3 L674,40.2 C674,35.266642 672.600014,31.3500145 669.8,28.45 C666.999986,25.5499855 663.200024,24.1 658.4,24.1 C655.866654,24.1 653.183347,24.633328 650.35,25.7 C647.516652,26.766672 644.633348,28.29999 641.7,30.3 L639.8,26.9 C646.4667,22.366644 652.79997,20.1 658.8,20.1 C665.066698,20.1 669.999982,21.9166485 673.6,25.55 C677.200018,29.1833515 679,34.199968 679,40.6 L679,66 C679,67.666675 679.733326,68.5 681.2,68.5 L681.2,73 C680.866665,73.066667 680.516668,73.1166665 680.15,73.15 C679.783332,73.1833335 679.466668,73.2 679.2,73.2 C677.86666,73.2 676.800004,72.7500045 676,71.85 C675.199996,70.9499955 674.733334,69.866673 674.6,68.6 L674.6,64.3 C672.199988,67.433349 669.133352,69.833325 665.4,71.5 C661.666648,73.166675 657.633355,74 653.3,74 L653.3,74 Z M654.3,70 C658.166686,70 661.716651,69.266674 664.95,67.8 C668.18335,66.333326 670.666658,64.400012 672.4,62 C673.466672,60.599993 674,59.266673 674,58 L674,48.8 C671.599988,47.866662 669.100013,47.166669 666.5,46.7 C663.899987,46.233331 661.200014,46 658.4,46 C655.799987,46 653.433344,46.2833305 651.3,46.85 C649.166656,47.4166695 647.333341,48.199995 645.8,49.2 C644.266659,50.200005 643.083337,51.4166595 642.25,52.85 C641.416663,54.2833405 641,55.866658 641,57.6 C641,59.333342 641.33333,60.966659 642,62.5 C642.66667,64.033341 643.599994,65.3499945 644.8,66.45 C646.000006,67.5500055 647.416659,68.4166635 649.05,69.05 C650.683341,69.6833365 652.433324,70 654.3,70 L654.3,70 Z" id="Sherpa" fill="#41A877"></path>
        </g>
    </g>
</svg>
