<svg viewBox="91 722 641 227" version="1.1" xmlns="http://www.w3.org/2000/svg" xmlns:xlink="http://www.w3.org/1999/xlink">
    <path d="M91.0172779,928.615357 C91.0031083,929.156538 91.892144,929.571886 93.6632501,929.721754 C93.6632501,929.721754 98.5959402,930.148365 107.33143,930.87208 C112.793713,930.530269 119.615104,929.432471 127.288186,926.74859 C147.610211,919.640378 173.310858,899.120657 179.216644,899.120657 C190.824177,899.120657 164.561223,932.888131 172.496495,932.888131 C182.627128,932.888131 214.039265,874.562484 244.58542,866.581081 C265.250312,861.181553 269.724283,835.269423 273.298797,835.269423 C280.836546,835.269423 272.954832,853.412201 289.182797,876.404347 C307.151392,901.862654 349.270877,932.338652 356.384347,930.432315 C362.213449,928.870175 343.370341,915.9973 332.558337,893.59507 C327.155446,882.400401 325.024166,856.960975 326.449106,853.074092 C330.725568,841.408964 328.892803,865.967127 332.558339,864.739219 C336.223876,863.511311 338.424395,866.51579 350.88603,856.143862 C364.658237,844.681133 379.193009,822.538067 392.428801,815.008939 C424.807725,796.590317 370.43557,856.143862 376.5448,858.599678 C385.848871,862.339771 407.307984,842.828453 424.807718,826.756984 C441.732277,811.213746 458.540523,783.676325 469.405104,784.311235 C479.445839,784.898001 466.350488,824.21825 461.463104,835.269423 C455.275879,849.259746 467.194174,846.209683 469.405104,858.599678 C471.8544,872.325474 459.019419,900.348565 463.906796,905.874152 C475.514343,901.576473 474.292489,904.032299 481.012643,887.455529 C487.732797,870.87876 480.075011,835.797621 496.896643,812.553123 C501.784028,805.799628 501.173113,768.962383 509.115105,772.032154 C517.057098,775.101924 538.439414,843.250826 545.770491,864.739219 C553.101568,886.227612 596.477116,904.032289 600.75357,899.120657 C601.975424,892.367162 562.265415,864.739219 567.763723,832.813607 C572.062213,836.787838 581.896053,847.379223 600.75357,858.599678 C618.102377,868.922432 640.045161,864.705676 659.402188,923.064866 C663.067726,934.116039 728.445815,930.68173 728.445815,930.68173 C730.077553,930.615009 730.924449,930.473928 730.991249,930.257488 C730.910259,929.993971 730.097592,929.675128 728.557868,929.308784 C728.557868,929.308784 724.160073,930.432303 702.777727,916.925313 C692.086554,910.171818 684.050869,902.102237 676.520223,894 C668.989578,885.897763 661.963971,877.762872 653.292956,870.878757 C630.61483,852.874081 617.523491,837.606519 611.750185,832.813604 C597.698954,821.148477 586.414671,815.636201 573.26203,805.79963 C546.992337,786.153105 500.626013,725.28485 500.626013,725.28485 C498.566348,722.620166 494.387166,721.523323 491.329053,722.955949 C491.329053,722.955949 471.237877,730.283277 453.521107,752.385625 C448.16861,759.06307 431.338769,766.033025 416.254798,776.329832 C403.539587,785.009647 382.043123,800.274041 369.824661,803.343811 C357.606199,806.413582 336.843118,828.461814 336.843118,828.461814 C334.476704,830.865244 329.986555,831.876665 326.832041,830.669742 C326.832041,830.669742 302.623116,822.376386 294.681115,812.553121 C286.739115,802.729856 273.507901,798.754204 273.507901,798.754204 C270.355789,797.559123 265.467483,798.025125 262.609339,799.821642 C262.609339,799.821642 231.145112,818.692662 223.814036,830.971743 C221.277437,835.220385 208.854627,849.995308 188.380499,864.739218 C173.677602,875.327125 165.776344,872.72063 160.278034,881.315987 C158.302679,884.404005 139.506644,886.22762 134.619261,892.36716 C132.861708,894.575001 123.178806,908.463564 116.291568,913.855553 C104.026848,923.457551 93.2508031,926.956107 93.2508031,926.956107 C91.8789761,927.499818 91.1369861,928.088948 91.0172779,928.615357 Z" id="sherpa-caps" stroke="none" fill="#eeeeee" fill-rule="evenodd"></path>
</svg>
