<svg viewBox="0 0 44 44" version="1.1" xmlns="http://www.w3.org/2000/svg" xmlns:xlink="http://www.w3.org/1999/xlink">
    <g id="svgs" stroke="none" stroke-width="1" fill="none" fill-rule="evenodd">
        <g id="Artboard-9" transform="translate(-584.000000, -467.000000)" fill="#E6E6E6">
            <path d="M615.777778,471.4 L596.222222,471.4 L596.222222,467 L591.333333,467 L591.333333,471.4 L588.888889,471.4 C586.175556,471.4 584.024444,473.38 584.024444,475.8 L584,506.6 C584,509.02 586.175556,511 588.888889,511 L623.111111,511 C625.8,511 628,509.02 628,506.6 L628,475.8 C628,473.38 625.8,471.4 623.111111,471.4 L620.666667,471.4 L620.666667,467 L615.777778,467 L615.777778,471.4 Z M624,507.4 L588,507.4 L588,479.4 L624,479.4 L624,507.4 L624,507.4 Z" id="cal-date"></path>
        </g>
    </g>
</svg>
