<svg xmlns="http://www.w3.org/2000/svg" xmlns:xlink="http://www.w3.org/1999/xlink" version="1.1" viewBox="0 0 100 100" xml:space="preserve" preserveAspectRatio="xMidYMid meet">
  <g id="svgs" stroke="none" stroke-width="1" fill="none" fill-rule="evenodd">
    <path fill="#ffffff" d="M50,15.481c22.527,0,40.855,15.468,40.855,34.481c0,19.013-18.327,34.481-40.855,34.481c-5.903,0-11.597-1.041-16.924-3.093l-1.244-0.479l-1.189,0.602l-11.07,5.603c0.427-1.681,0.647-3.423,0.647-5.189c0-5.628-2.752-10.677-5.061-13.922c-2.774-3.899-6.014-10.954-6.014-18.003C9.145,30.949,27.473,15.481,50,15.481 M50,12.481c-24.22,0-43.855,16.781-43.855,37.481c0,7.244,3.133,14.912,6.569,19.742c2.18,3.064,4.506,7.533,4.506,12.183c0,4.656-1.764,8.9-4.661,12.1l19.439-9.838C37.49,86.266,43.584,87.444,50,87.444c24.22,0,43.855-16.781,43.855-37.481S74.22,12.481,50,12.481L50,12.481z"></path>
    </g>
    <g class="filled" display="none">
      <path display="inline" fill="none" d="M17.22,81.887c0,4.656-1.764,8.9-4.661,12.101l19.439-9.838C37.49,86.266,43.584,87.444,50,87.444c24.22,0,43.855-16.781,43.855-37.481S74.22,12.481,50,12.481S6.145,29.262,6.145,49.962c0,7.244,3.133,14.912,6.569,19.742C14.894,72.768,17.22,77.237,17.22,81.887z"></path>
    </g>
  </svg>
