<svg xmlns="http://www.w3.org/2000/svg" viewBox="0 0 41.17 41.17" width="41.17" height="41.17">
  <!--svg viewBox="0 0 16 16"-->
  <path fill="#828282" d="M20.58 3.71c5.5 0 6.15 0 8.32.12a11.39 11.39 0 0 1 3.82.71 6.38 6.38 0 0 1 2.37 1.54 6.38 6.38 0 0 1 1.54 2.37 11.39 11.39 0 0 1 .71 3.82c.1 2.17.12 2.82.12 8.32s0 6.15-.12 8.32a11.39 11.39 0 0 1-.71 3.82 6.82 6.82 0 0 1-3.91 3.91 11.39 11.39 0 0 1-3.82.71c-2.17.1-2.82.12-8.32.12s-6.15 0-8.32-.12a11.39 11.39 0 0 1-3.82-.71 6.38 6.38 0 0 1-2.37-1.54 6.38 6.38 0 0 1-1.54-2.37 11.39 11.39 0 0 1-.71-3.82c-.1-2.17-.12-2.82-.12-8.32s0-6.15.12-8.32a11.39 11.39 0 0 1 .71-3.82 6.38 6.38 0 0 1 1.55-2.37 6.38 6.38 0 0 1 2.36-1.54 11.39 11.39 0 0 1 3.82-.71c2.17-.1 2.82-.12 8.32-.12m0-3.71C15 0 14.29 0 12.1.12a15.11 15.11 0 0 0-5 1 10.09 10.09 0 0 0-3.65 2.33A10.09 10.09 0 0 0 1.08 7.1a15.1 15.1 0 0 0-1 5C0 14.29 0 15 0 20.58s0 6.29.12 8.49a15.1 15.1 0 0 0 1 5 10.09 10.09 0 0 0 2.37 3.65 10.09 10.09 0 0 0 3.61 2.37 15.11 15.11 0 0 0 5 1c2.2.1 2.9.12 8.49.12s6.29 0 8.49-.12a15.11 15.11 0 0 0 5-1 10.52 10.52 0 0 0 6-6 15.1 15.1 0 0 0 1-5c.1-2.2.12-2.9.12-8.49s0-6.29-.12-8.49a15.1 15.1 0 0 0-1-5 10.09 10.09 0 0 0-2.37-3.65 10.09 10.09 0 0 0-3.65-2.37 15.11 15.11 0 0 0-5-1C26.87 0 26.17 0 20.58 0"/><path fill="#f2e9e7" d="M20.58 10a10.57 10.57 0 1 0 10.57 10.58A10.57 10.57 0 0 0 20.58 10m0 17.43a6.86 6.86 0 1 1 6.86-6.86 6.86 6.86 0 0 1-6.86 6.86M34 9.6a2.47 2.47 0 1 1-2.47-2.47A2.47 2.47 0 0 1 34 9.6"/>
</svg>
